<svg width="44" height="44" xmlns="http://www.w3.org/2000/svg" xmlns:xlink="http://www.w3.org/1999/xlink" overflow="hidden"><defs><clipPath id="clip0"><rect x="548" y="274" width="44" height="44"/></clipPath></defs><g clip-path="url(#clip0)" transform="translate(-548 -274)"><path d="M583.2 303.15C581.183 301.5 578.617 300.4 576.05 299.667 574.217 299.117 572.2 298.75 570 298.75 567.983 298.75 565.967 299.117 563.95 299.667 561.383 300.4 558.817 301.683 556.8 303.15 555.883 303.883 555.333 304.983 555.333 306.083L555.333 313.417 584.667 313.417 584.667 306.083C584.667 304.983 584.117 303.883 583.2 303.15Z" fill="#FFFFFF"/><path d="M562.85 283.35C563.125 283.35 563.354 283.258 563.492 283.075L563.492 283.075C565.188 281.425 567.479 280.417 570 280.417 575.042 280.417 579.167 284.542 579.167 289.583L579.167 291.692 573.896 293.433C573.667 293.342 573.438 293.25 573.208 293.25 572.429 293.25 571.833 293.846 571.833 294.625 571.833 295.404 572.429 296 573.208 296 573.758 296 574.263 295.679 574.492 295.175L581.779 292.746C582.146 292.608 582.421 292.288 582.421 291.875L582.421 287.75C582.421 287.246 582.008 286.833 581.504 286.833L580.679 286.833C579.442 282.112 575.133 278.583 570 278.583 567.021 278.583 564.317 279.775 562.3 281.7 562.071 281.883 561.933 282.112 561.933 282.433 561.933 282.938 562.346 283.35 562.85 283.35Z" fill="#FFFFFF"/><path d="M577.287 290.362C577.333 290.087 577.333 289.858 577.333 289.583 577.333 285.55 574.033 282.25 570 282.25 565.967 282.25 562.667 285.55 562.667 289.583 562.667 293.617 565.967 296.917 570 296.917 570.138 296.917 570.321 296.917 570.458 296.871L570.458 294.625 570.458 294.625C570.458 294.212 570.55 293.8 570.733 293.388 571.054 292.746 571.604 292.242 572.338 292.013L577.287 290.362Z" fill="#FFFFFF"/></g></svg>